<svg xmlns="http://www.w3.org/2000/svg" width="190" height="165" viewBox="0 0 190 165">
  <rect width="190" height="165" rx="10" fill="#f5f6f8"/>
  <rect x="8" y="8" width="174" height="149" rx="8" fill="#ffffff" stroke="#c8d0d8"/>
  <rect x="18" y="18" width="154" height="18" rx="4" fill="#d55a6d"/>
  <text x="95" y="31" fill="#fff6ef" font-family="Arial, sans-serif" font-size="11" font-weight="700" text-anchor="middle">SIGMACRAFT</text>
  <rect x="58" y="55" width="74" height="42" rx="10" fill="#ffffff" stroke="#cfd6dd" stroke-width="2"/>
  <rect x="50" y="64" width="12" height="28" fill="#f04d71"/>
  <rect x="62" y="50" width="14" height="14" fill="#ff9f1c"/>
  <rect x="76" y="46" width="14" height="14" fill="#ffd166"/>
  <rect x="90" y="46" width="14" height="14" fill="#46c36f"/>
  <rect x="104" y="50" width="14" height="14" fill="#2cb1bc"/>
  <rect x="118" y="64" width="12" height="28" fill="#6c63ff"/>
  <rect x="70" y="97" width="8" height="26" fill="#4f4035"/>
  <rect x="112" y="97" width="8" height="26" fill="#4f4035"/>
  <rect x="120" y="66" width="24" height="18" rx="6" fill="#2d2d31"/>
  <rect x="139" y="72" width="10" height="8" rx="3" fill="#f3bac2"/>
  <circle cx="126" cy="74" r="2" fill="#ffffff"/>
  <circle cx="134" cy="74" r="2" fill="#ffffff"/>
  <circle cx="126" cy="74" r="1" fill="#111827"/>
  <circle cx="134" cy="74" r="1" fill="#111827"/>
  <rect x="132" y="84" width="18" height="6" rx="3" fill="#ff7b89"/>
  <text x="95" y="143" fill="#4a5563" font-family="Arial, sans-serif" font-size="14" font-weight="700" text-anchor="middle">Mouton Multicolore</text>
</svg>
