<svg xmlns="http://www.w3.org/2000/svg" width="468" height="80" viewBox="0 0 468 80" role="img" aria-label="Quest banner">
  <defs>
    <linearGradient id="bg" x1="0" y1="0" x2="1" y2="1">
      <stop offset="0%" stop-color="#1e2343"/>
      <stop offset="100%" stop-color="#23403f"/>
    </linearGradient>
    <linearGradient id="accent" x1="0" y1="0" x2="1" y2="1">
      <stop offset="0%" stop-color="#82f0d9"/>
      <stop offset="100%" stop-color="#90b8ff"/>
    </linearGradient>
    <pattern id="grid" width="24" height="24" patternUnits="userSpaceOnUse">
      <path d="M24 0H0V24" fill="none" stroke="#ffffff" stroke-opacity=".05" stroke-width=".8"/>
    </pattern>
  </defs>
  <rect width="468" height="80" rx="12" fill="url(#bg)"/>
  <rect width="468" height="80" rx="12" fill="url(#grid)"/>
  <circle cx="54" cy="40" r="24" fill="none" stroke="url(#accent)" stroke-width="2.5" opacity=".9"/>
  <path d="M54 20l6 14 15 2-11 10 3 15-13-8-13 8 3-15-11-10 15-2z" fill="#82f0d9" opacity=".2"/>
  <path d="M16 61L46 36l24 12 25-13 32 11 31-9 46 16 53-12 65 12v8H16z" fill="#07111c" fill-opacity=".64"/>
  <path d="M16 58L46 40l24 10 25-11 32 9 31-7 46 14 53-9 65 9v5H16z" fill="#82f0d9" fill-opacity=".18"/>
  <rect x="92" y="16" width="128" height="18" rx="9" fill="#82f0d9" fill-opacity=".12"/>
  <text x="102" y="29" fill="#e9fff9" font-family="Arial, sans-serif" font-size="11" letter-spacing="2.2">QUESTS</text>
  <text x="94" y="54" fill="#ffffff" font-family="Arial, sans-serif" font-size="20" font-weight="700">Exploration, lore and progression</text>
  <text x="95" y="68" fill="#d4e4e1" font-family="Arial, sans-serif" font-size="11">Donjons, ruines et objectifs a long terme</text>
</svg>
