<svg xmlns="http://www.w3.org/2000/svg" width="468" height="80" viewBox="0 0 468 80" role="img" aria-label="Roleplay banner">
  <defs>
    <linearGradient id="bg" x1="0" y1="0" x2="1" y2="1">
      <stop offset="0%" stop-color="#2b173f"/>
      <stop offset="100%" stop-color="#0d1d31"/>
    </linearGradient>
    <linearGradient id="accent" x1="0" y1="0" x2="1" y2="1">
      <stop offset="0%" stop-color="#d6a8ff"/>
      <stop offset="100%" stop-color="#7bd7ff"/>
    </linearGradient>
    <pattern id="grid" width="24" height="24" patternUnits="userSpaceOnUse">
      <path d="M24 0H0V24" fill="none" stroke="#ffffff" stroke-opacity=".05" stroke-width=".8"/>
    </pattern>
  </defs>
  <rect width="468" height="80" rx="12" fill="url(#bg)"/>
  <rect width="468" height="80" rx="12" fill="url(#grid)"/>
  <circle cx="54" cy="40" r="24" fill="none" stroke="url(#accent)" stroke-width="2.5" opacity=".9"/>
  <path d="M54 22l10 6v12l-10 6-10-6V28z" fill="#d6a8ff" opacity=".18"/>
  <path d="M18 61L52 38l18 8 26-13 27 12 36-9 37 15 50-10 58 11v9H18z" fill="#07111d" fill-opacity=".65"/>
  <path d="M18 58L52 41l18 7 26-11 27 10 36-7 37 13 50-8 58 8v5H18z" fill="#d6a8ff" fill-opacity=".18"/>
  <rect x="92" y="16" width="128" height="18" rx="9" fill="#d6a8ff" fill-opacity=".12"/>
  <text x="102" y="29" fill="#f5e9ff" font-family="Arial, sans-serif" font-size="11" letter-spacing="2.2">ROLEPLAY</text>
  <text x="94" y="54" fill="#ffffff" font-family="Arial, sans-serif" font-size="20" font-weight="700">Story-driven worlds and factions</text>
  <text x="95" y="68" fill="#d8d7ea" font-family="Arial, sans-serif" font-size="11">Villages, metiers et missions narratives</text>
</svg>
