<svg xmlns="http://www.w3.org/2000/svg" width="468" height="80" viewBox="0 0 468 80" role="img" aria-label="Survival banner">
  <defs>
    <linearGradient id="bg" x1="0" y1="0" x2="1" y2="1">
      <stop offset="0%" stop-color="#102f28"/>
      <stop offset="100%" stop-color="#14233d"/>
    </linearGradient>
    <linearGradient id="accent" x1="0" y1="0" x2="1" y2="1">
      <stop offset="0%" stop-color="#8cf0c0"/>
      <stop offset="100%" stop-color="#56c7ff"/>
    </linearGradient>
    <pattern id="grid" width="24" height="24" patternUnits="userSpaceOnUse">
      <path d="M24 0H0V24" fill="none" stroke="#ffffff" stroke-opacity=".05" stroke-width=".8"/>
    </pattern>
  </defs>
  <rect width="468" height="80" rx="12" fill="url(#bg)"/>
  <rect width="468" height="80" rx="12" fill="url(#grid)"/>
  <circle cx="54" cy="40" r="24" fill="none" stroke="url(#accent)" stroke-width="2.5" opacity=".9"/>
  <circle cx="54" cy="40" r="13" fill="#8cf0c0" opacity=".14"/>
  <path d="M16 61L48 34l23 10 30-17 33 12 33-8 40 15 45-9 52 9v15H16z" fill="#08131a" fill-opacity=".65"/>
  <path d="M16 58L48 38l23 11 30-18 33 11 33-8 40 13 45-8 52 8v8H16z" fill="#68f0c3" fill-opacity=".18"/>
  <rect x="92" y="16" width="128" height="18" rx="9" fill="#8cf0c0" fill-opacity=".12"/>
  <text x="102" y="29" fill="#dffdf2" font-family="Arial, sans-serif" font-size="11" letter-spacing="2.2">SURVIVAL</text>
  <text x="94" y="54" fill="#f6fffb" font-family="Arial, sans-serif" font-size="20" font-weight="700">Stable world, seasonal pace</text>
  <text x="95" y="68" fill="#bfd6cf" font-family="Arial, sans-serif" font-size="11">Quests, metiers et economie communautaire</text>
</svg>
