<svg xmlns="http://www.w3.org/2000/svg" width="512" height="512" viewBox="0 0 512 512" fill="none">
  <defs>
    <linearGradient id="bg" x1="72" y1="44" x2="448" y2="464" gradientUnits="userSpaceOnUse">
      <stop stop-color="#0B1220"/>
      <stop offset="1" stop-color="#111827"/>
    </linearGradient>
    <linearGradient id="bubble" x1="116" y1="130" x2="392" y2="358" gradientUnits="userSpaceOnUse">
      <stop stop-color="#8BF4E7"/>
      <stop offset="1" stop-color="#14B8A6"/>
    </linearGradient>
    <linearGradient id="shell" x1="180" y1="142" x2="332" y2="294" gradientUnits="userSpaceOnUse">
      <stop stop-color="#F8FFFF"/>
      <stop offset="1" stop-color="#D9F7FF"/>
    </linearGradient>
  </defs>
  <rect x="40" y="40" width="432" height="432" rx="112" fill="url(#bg)"/>
  <rect x="40" y="40" width="432" height="432" rx="112" stroke="#263244" stroke-width="16"/>
  <circle cx="148" cy="168" r="28" fill="#5EEAD4" fill-opacity=".15"/>
  <circle cx="368" cy="170" r="18" fill="#60A5FA" fill-opacity=".12"/>
  <path
    d="M182 130H330C364 130 392 158 392 192V246C392 280 364 308 330 308H270L226 352V308H182C148 308 120 280 120 246V192C120 158 148 130 182 130Z"
    fill="url(#bubble)"
    stroke="#DDFBFF"
    stroke-width="14"
    stroke-linejoin="round"
  />
  <rect x="188" y="184" width="136" height="112" rx="30" fill="#0B1220" fill-opacity=".42" stroke="url(#shell)" stroke-width="10"/>
  <rect x="230" y="152" width="52" height="14" rx="7" fill="url(#shell)"/>
  <circle cx="256" cy="136" r="12" fill="url(#shell)"/>
  <circle cx="228" cy="228" r="13" fill="#FFFFFF"/>
  <circle cx="284" cy="228" r="13" fill="#FFFFFF"/>
  <circle cx="228" cy="228" r="5" fill="#0B1220"/>
  <circle cx="284" cy="228" r="5" fill="#0B1220"/>
  <rect x="224" y="260" width="64" height="12" rx="6" fill="#FFFFFF"/>
  <path d="M256 152V171" stroke="url(#shell)" stroke-width="10" stroke-linecap="round"/>
  <circle cx="382" cy="318" r="7" fill="#DDFBFF" fill-opacity=".55"/>
  <circle cx="100" cy="326" r="5" fill="#60A5FA" fill-opacity=".28"/>
</svg>
